<svg xmlns="http://www.w3.org/2000/svg" viewBox="0 0 309.97 64" width="309.97" height="64">
  <path d="M16 17 L32 47 L48 17" stroke="#171717" stroke-width="11" stroke-linecap="round" stroke-linejoin="round" fill="none"/>
  <circle cx="32" cy="22.5" r="4.9" fill="#E9560C"/>
  <g transform="translate(65.5 52.5) scale(0.017450)">
    <path d="M532.2015380859375 0.0 9.200439453125 -1490.0H343.91455078125L585.4578247070312 -764.79296875Q627.6571655273438 -629.6954956054688 674.3669128417969 -471.55694580078125Q721.07666015625 -313.41839599609375 776.1369018554688 -126.33843994140625H687.2584838867188Q740.3187255859375 -313.41839599609375 785.6385498046875 -471.55694580078125Q830.9583740234375 -629.6954956054688 871.6177368164062 -764.79296875L1105.1610107421875 -1490.0H1435.7152099609375L924.1138916015625 0.0Z M1682.5208349609375 17.61993408203125Q1576.9808569335937 17.61993408203125 1495.0608129882812 -17.30010986328125Q1413.1407690429687 -52.22015380859375 1365.990714111328 -122.37020874023438Q1318.8406591796875 -192.520263671875 1318.8406591796875 -297.520263671875Q1318.8406591796875 -387.4403076171875 1351.9107580566406 -446.8702087402344Q1384.9808569335937 -506.30010986328125 1442.3209448242187 -542.5799560546875Q1499.6610327148437 -578.8598022460938 1574.351065673828 -597.7497253417969Q1649.0410986328125 -616.6396484375 1731.280966796875 -624.479736328125Q1827.961142578125 -634.159912109375 1885.1511755371093 -643.0498352050781Q1942.3412084960937 -651.9397583007812 1967.1111975097656 -669.0197143554688Q1991.8811865234375 -686.0996704101562 1991.8811865234375 -720.159912109375V-726.9200439453125Q1991.8811865234375 -766.0208129882812 1971.1309118652343 -795.6714172363281Q1950.3806372070312 -825.322021484375 1911.9200659179687 -842.182373046875Q1873.4594946289062 -859.042724609375 1819.438681640625 -859.042724609375Q1764.7979345703125 -859.042724609375 1723.4173193359375 -841.8324279785156Q1682.0367041015625 -824.6221313476562 1657.986319580078 -793.6916809082031Q1633.9359350585937 -762.76123046875 1629.9359350585937 -721.6407470703125H1352.72017578125Q1359.880087890625 -831.0602416992188 1417.5799780273437 -910.8800659179688Q1475.2798681640625 -990.6998901367188 1579.1895056152343 -1034.4299011230469Q1683.0991430664062 -1078.159912109375 1828.078330078125 -1078.159912109375Q1936.2776708984375 -1078.159912109375 2021.0372534179687 -1053.4299011230469Q2105.7968359375 -1028.6998901367188 2164.236594238281 -981.6199340820312Q2222.6763525390625 -934.5399780273438 2252.8362646484375 -867.5700988769531Q2282.9961767578125 -800.6002197265625 2282.9961767578125 -716.1204833984375V0.0H1995.1210546875V-148.9200439453125H1991.1210546875Q1963.48140625 -97.42059326171875 1922.16158203125 -60.00054931640625Q1880.8417578125 -22.58050537109375 1822.1216040039062 -2.48028564453125Q1763.4014501953125 17.61993408203125 1682.5208349609375 17.61993408203125ZM1763.758505859375 -186.7579345703125Q1834.8198461914062 -186.7579345703125 1886.5903845214843 -212.91839599609375Q1938.3609228515625 -239.078857421875 1966.2010107421875 -283.95947265625Q1994.0410986328125 -328.840087890625 1994.0410986328125 -385.9605712890625V-492.0416259765625Q1981.3412084960937 -485.2015380859375 1960.2409887695312 -478.82147216796875Q1939.1407690429687 -472.44140625 1911.1703405761718 -466.56134033203125Q1883.199912109375 -460.6812744140625 1850.3094396972656 -455.0312194824219Q1817.4189672851562 -449.38116455078125 1781.59859375 -443.921142578125Q1731.398154296875 -436.46112060546875 1690.3976049804687 -419.9309997558594Q1649.3970556640625 -403.40087890625 1625.11666015625 -375.7305603027344Q1600.8362646484375 -348.06024169921875 1600.8362646484375 -305.8795166015625Q1600.8362646484375 -268.759033203125 1621.1265173339843 -241.898681640625Q1641.4167700195312 -215.038330078125 1677.997275390625 -200.89813232421875Q1714.5777807617187 -186.7579345703125 1763.758505859375 -186.7579345703125Z M2744.6758251953124 -1490.0V0.0H2450.48087890625V-1490.0Z M3394.4190112304686 24.0Q3234.559208984375 24.0 3115.6095935058593 -46.730010986328125Q2996.6599780273436 -117.46002197265625 2931.370274658203 -242.23001098632812Q2866.0805712890624 -367.0 2866.0805712890624 -527.0799560546875Q2866.0805712890624 -688.6199340820312 2932.4803515625 -813.3499450683594Q2998.8801318359374 -938.0799560546875 3115.7897692871093 -1009.0399780273438Q3232.699406738281 -1080.0 3384.5789233398436 -1080.0Q3501.0586596679686 -1080.0 3596.3083850097655 -1040.2699890136719Q3691.5581103515624 -1000.5399780273438 3760.4978686523436 -927.3499450683594Q3829.437626953125 -854.159912109375 3866.717473144531 -754.0098571777344Q3903.9973193359374 -653.8598022460938 3903.9973193359374 -533.0197143554688V-453.62103271484375H2971.1999560546874V-641.7393188476562H3762.019230957031L3629.081669921875 -597.2190551757812Q3629.081669921875 -677.1401977539062 3600.0312854003905 -735.0410766601562Q3570.980900878906 -792.9419555664062 3517.7202197265624 -824.2924499511719Q3464.4595385742186 -855.6429443359375 3390.518681640625 -855.6429443359375Q3317.577824707031 -855.6429443359375 3264.2771655273436 -824.2924499511719Q3210.976506347656 -792.9419555664062 3181.9261218261718 -735.0410766601562Q3152.8757373046874 -677.1401977539062 3152.8757373046874 -597.2190551757812V-468.5213623046875Q3152.8757373046874 -387.06024169921875 3182.276066894531 -325.73931884765625Q3211.676396484375 -264.41839599609375 3267.7470446777343 -230.68783569335938Q3323.8176928710936 -196.957275390625 3403.0586596679686 -196.957275390625Q3460.7793627929686 -196.957275390625 3505.6298571777343 -213.70755004882812Q3550.4803515625 -230.45782470703125 3580.6906481933593 -260.8482971191406Q3610.9009448242186 -291.23876953125 3624.2010546875 -331.65936279296875H3893.55701171875Q3874.0969897460936 -226.8795166015625 3804.077275390625 -146.86965942382812Q3734.057561035156 -66.85980224609375 3628.2180224609374 -21.429901123046875Q3522.3784838867186 24.0 3394.4190112304686 24.0Z M4315.755825195312 -586.6812744140625V0.0H4021.56087890625V-1056.0H4311.215847167969V-781.1007690429688H4261.055935058594Q4311.436000976562 -921.40087890625 4404.205989990234 -999.7803955078125Q4496.975979003906 -1078.159912109375 4640.875209960937 -1078.159912109375Q4753.814968261719 -1078.159912109375 4836.955166015625 -1029.5Q4920.095363769531 -980.840087890625 4965.845638427734 -887.840087890625Q5011.595913085937 -794.840087890625 5011.595913085937 -661.3997802734375V0.0H4717.400966796875V-607.281494140625Q4717.400966796875 -713.5027465820312 4666.750362548828 -768.6933288574219Q4616.099758300781 -823.8839111328125 4523.018703613281 -823.8839111328125Q4462.218044433594 -823.8839111328125 4415.417385253906 -798.8236694335938Q4368.616726074219 -773.763427734375 4342.1862756347655 -721.3028564453125Q4315.755825195312 -668.84228515625 4315.755825195312 -586.6812744140625Z M5663.1189453125 24.0Q5504.699450683594 24.0 5385.289813232422 -45.690032958984375Q5265.88017578125 -115.38006591796875 5199.520373535156 -239.65005493164062Q5133.160571289062 -363.9200439453125 5133.160571289062 -527.0799560546875Q5133.160571289062 -690.6998901367188 5199.520373535156 -815.4299011230469Q5265.88017578125 -940.159912109375 5385.289813232422 -1010.0799560546875Q5504.699450683594 -1080.0 5663.1189453125 -1080.0Q5767.158374023437 -1080.0 5854.997912597656 -1049.2601318359375Q5942.837451171875 -1018.520263671875 6008.357165527344 -962.54052734375Q6073.876879882812 -906.560791015625 6113.036791992187 -830.1111755371094Q6152.196704101562 -753.6615600585938 6159.416857910156 -661.2420654296875H5874.021472167969Q5868.261340332031 -701.7623291015625 5851.93110961914 -734.8225708007812Q5835.60087890625 -767.8828125 5809.200549316406 -791.7929992675781Q5782.800219726562 -815.7031860351562 5747.329791259765 -828.7333068847656Q5711.859362792969 -841.763427734375 5667.43876953125 -841.763427734375Q5593.277758789062 -841.763427734375 5540.13701171875 -803.3329772949219Q5486.996264648437 -764.9025268554688 5458.715869140625 -694.3417358398438Q5430.435473632812 -623.7809448242188 5430.435473632812 -527.0799560546875Q5430.435473632812 -431.37896728515625 5458.715869140625 -361.0082092285156Q5486.996264648437 -290.637451171875 5540.176989746094 -252.43701171875Q5593.35771484375 -214.236572265625 5667.43876953125 -214.236572265625Q5711.859362792969 -214.236572265625 5746.869769287109 -227.07666015625Q5781.88017578125 -239.916748046875 5807.360461425781 -263.8269348144531Q5832.840747070312 -287.73712158203125 5849.170977783203 -321.5673522949219Q5865.501208496094 -355.3975830078125 5872.64140625 -396.9178466796875H6159.416857910156Q6154.356616210937 -305.41839599609375 6116.006671142578 -228.69879150390625Q6077.656726074219 -151.97918701171875 6011.63701171875 -95.22946166992188Q5945.617297363281 -38.479736328125 5856.967791748047 -7.2398681640625Q5768.318286132812 24.0 5663.1189453125 24.0Z M6757.5390112304685 24.0Q6597.679208984375 24.0 6478.729593505859 -46.730010986328125Q6359.7799780273435 -117.46002197265625 6294.490274658203 -242.23001098632812Q6229.200571289062 -367.0 6229.200571289062 -527.0799560546875Q6229.200571289062 -688.6199340820312 6295.6003515625 -813.3499450683594Q6362.000131835937 -938.0799560546875 6478.909769287109 -1009.0399780273438Q6595.819406738281 -1080.0 6747.6989233398435 -1080.0Q6864.1786596679685 -1080.0 6959.428385009765 -1040.2699890136719Q7054.678110351562 -1000.5399780273438 7123.6178686523435 -927.3499450683594Q7192.557626953125 -854.159912109375 7229.837473144531 -754.0098571777344Q7267.117319335937 -653.8598022460938 7267.117319335937 -533.0197143554688V-453.62103271484375H6334.319956054687V-641.7393188476562H7125.139230957031L6992.201669921875 -597.2190551757812Q6992.201669921875 -677.1401977539062 6963.15128540039 -735.0410766601562Q6934.100900878906 -792.9419555664062 6880.840219726562 -824.2924499511719Q6827.5795385742185 -855.6429443359375 6753.638681640625 -855.6429443359375Q6680.697824707031 -855.6429443359375 6627.3971655273435 -824.2924499511719Q6574.096506347656 -792.9419555664062 6545.046121826172 -735.0410766601562Q6515.995737304687 -677.1401977539062 6515.995737304687 -597.2190551757812V-468.5213623046875Q6515.995737304687 -387.06024169921875 6545.396066894531 -325.73931884765625Q6574.796396484375 -264.41839599609375 6630.867044677734 -230.68783569335938Q6686.9376928710935 -196.957275390625 6766.1786596679685 -196.957275390625Q6823.8993627929685 -196.957275390625 6868.749857177734 -213.70755004882812Q6913.6003515625 -230.45782470703125 6943.810648193359 -260.8482971191406Q6974.0209448242185 -291.23876953125 6987.3210546875 -331.65936279296875H7256.67701171875Q7237.2169897460935 -226.8795166015625 7167.197275390625 -146.86965942382812Q7097.177561035156 -66.85980224609375 6991.338022460937 -21.429901123046875Q6885.4984838867185 24.0 6757.5390112304685 24.0Z" fill="#171717"/>
  </g>
  <g transform="translate(200.91 52.5) scale(0.017450)">
    <path d="M409.26068115234375 0.0 9.200439453125 -1490.0H336.9945068359375L512.1171875 -750.072265625Q533.277099609375 -658.0930786132812 551.8970336914062 -565.8439025878906Q570.5169677734375 -473.5947265625 588.4068908691406 -381.61553955078125Q606.2968139648438 -289.6363525390625 622.4567260742188 -197.1171875H560.9583740234375Q579.1982421875 -289.6363525390625 597.8981323242188 -381.61553955078125Q616.5980224609375 -473.5947265625 636.7979125976562 -565.8439025878906Q656.997802734375 -658.0930786132812 679.2376708984375 -750.072265625L863.68017578125 -1490.0H1177.515869140625L1361.038330078125 -750.072265625Q1383.2781982421875 -658.0930786132812 1403.7080993652344 -565.8439025878906Q1424.1380004882812 -473.5947265625 1443.0679016113281 -381.61553955078125Q1461.997802734375 -289.6363525390625 1480.2376708984375 -197.1171875H1416.8192749023438Q1433.9791870117188 -289.6363525390625 1451.59912109375 -381.61553955078125Q1469.2190551757812 -473.5947265625 1488.5690002441406 -565.8439025878906Q1507.9189453125 -658.0930786132812 1528.078857421875 -750.072265625L1703.281494140625 -1490.0H2031.99560546875L1631.0153198242188 0.0H1287.6407470703125L1076.3187255859375 -813.1259765625Q1053.6385498046875 -902.326416015625 1031.1385498046875 -1010.966064453125Q1008.6385498046875 -1119.605712890625 978.4589233398438 -1256.32421875H1061.8170776367188Q1031.637451171875 -1119.605712890625 1009.637451171875 -1010.966064453125Q987.637451171875 -902.326416015625 964.4172973632812 -813.1259765625L753.5552978515625 0.0Z M2476.438681640625 24.0Q2316.939230957031 24.0 2195.909659423828 -44.88006591796875Q2074.880087890625 -113.7601318359375 2007.4403295898437 -237.7601318359375Q1940.0005712890625 -361.7601318359375 1940.0005712890625 -527.0799560546875Q1940.0005712890625 -692.8598022460938 2007.4403295898437 -817.0498352050781Q2074.880087890625 -941.2398681640625 2195.909659423828 -1010.6199340820312Q2316.939230957031 -1080.0 2476.438681640625 -1080.0Q2636.9381323242187 -1080.0 2757.467703857422 -1010.6199340820312Q2877.997275390625 -941.2398681640625 2945.437033691406 -817.0498352050781Q3012.8767919921875 -692.8598022460938 3012.8767919921875 -527.0799560546875Q3012.8767919921875 -361.7601318359375 2945.437033691406 -237.7601318359375Q2877.997275390625 -113.7601318359375 2757.467703857422 -44.88006591796875Q2636.9381323242187 24.0 2476.438681640625 24.0ZM2476.438681640625 -215.3165283203125Q2548.35982421875 -215.3165283203125 2602.08052734375 -252.43701171875Q2655.80123046875 -289.5574951171875 2685.7015600585937 -359.6182861328125Q2715.6018896484375 -429.6790771484375 2715.6018896484375 -527.0799560546875Q2715.6018896484375 -625.9408569335938 2685.7015600585937 -695.7316589355469Q2655.80123046875 -765.5224609375 2602.08052734375 -803.1029663085938Q2548.35982421875 -840.6834716796875 2476.438681640625 -840.6834716796875Q2405.5175390625 -840.6834716796875 2351.2968359375 -803.3329772949219Q2297.0761328125 -765.9824829101562 2267.175803222656 -695.961669921875Q2237.2754736328125 -625.9408569335938 2237.2754736328125 -527.0799560546875Q2237.2754736328125 -429.21905517578125 2267.175803222656 -359.3882751464844Q2297.0761328125 -289.5574951171875 2351.066824951172 -252.43701171875Q2405.0575170898437 -215.3165283203125 2476.438681640625 -215.3165283203125Z M3134.48087890625 0.0V-1056.0H3418.5159130859374V-875.9605712890625H3421.43595703125Q3450.43595703125 -971.4600219726562 3512.3560009765624 -1017.4101867675781Q3574.276044921875 -1063.3603515625 3678.6758251953124 -1063.3603515625Q3704.915693359375 -1063.3603515625 3726.57560546875 -1062.4403076171875Q3748.235517578125 -1061.520263671875 3765.7952099609374 -1060.6002197265625V-809.603515625Q3749.855451660156 -810.9835815429688 3713.25578125 -813.0536804199219Q3676.6561108398437 -815.123779296875 3639.1161328125 -815.123779296875Q3578.956220703125 -815.123779296875 3531.1161328125 -787.5838012695312Q3483.276044921875 -760.0438232421875 3455.9759350585937 -706.0137023925781Q3428.6758251953124 -651.9835815429688 3428.6758251953124 -572.2431640625V0.0Z M4125.976506347656 -304.403076171875V-651.7371215820312H4156.79578125L4527.380681152344 -1056.0H4872.655583496094L4394.294133300781 -524.6812744140625H4326.456242675781ZM3859.52087890625 0.0V-1490.0H4153.715825195312V0.0ZM4550.261296386719 0.0 4216.377385253906 -459.682373046875 4410.894353027344 -665.1588134765625 4894.776066894531 0.0Z M5383.758022460937 25.61993408203125Q5246.998989257812 25.61993408203125 5140.149593505859 -16.509857177734375Q5033.300197753906 -58.6396484375 4969.0104943847655 -138.72946166992188Q4904.720791015625 -218.81927490234375 4895.56087890625 -331.65936279296875H5185.595913085937Q5193.51595703125 -263.038330078125 5243.286495361328 -224.10787963867188Q5293.057033691406 -185.17742919921875 5378.67806640625 -185.17742919921875Q5461.139187011719 -185.17742919921875 5507.899868164062 -216.32803344726562Q5554.660549316406 -247.4786376953125 5554.660549316406 -296.41949462890625Q5554.660549316406 -338.06024169921875 5518.760219726562 -363.8006591796875Q5482.859890136719 -389.54107666015625 5417.7996484375 -402.30120849609375L5232.680263671875 -437.98138427734375Q5079.20052734375 -468.12158203125 4999.380703125 -545.8214721679688Q4919.56087890625 -623.5213623046875 4919.56087890625 -745.5410766601562Q4919.56087890625 -845.8006591796875 4974.000637207031 -920.700439453125Q5028.440395507812 -995.6002197265625 5128.97982421875 -1036.9901428222656Q5229.519252929687 -1078.3800659179688 5366.818264160156 -1078.3800659179688Q5503.817165527344 -1078.3800659179688 5605.896572265625 -1034.7201538085938Q5707.975979003906 -991.0602416992188 5765.685726318359 -911.2803955078125Q5823.395473632812 -831.5005493164062 5826.395473632812 -721.1007690429688H5553.47982421875Q5552.47982421875 -784.5816040039062 5503.0893518066405 -826.6221313476562Q5453.698879394531 -868.6626586914062 5375.457912597656 -868.6626586914062Q5299.517055664062 -868.6626586914062 5256.096462402344 -836.5120544433594Q5212.675869140625 -804.3614501953125 5212.675869140625 -757.4205932617188Q5212.675869140625 -716.31982421875 5246.6862756347655 -690.0794067382812Q5280.696682128906 -663.8389892578125 5341.037319335937 -651.23876953125L5541.276088867187 -612.3187255859375Q5701.375759277344 -580.6385498046875 5776.9655725097655 -510.218505859375Q5852.555385742187 -439.7984619140625 5852.555385742187 -323.09857177734375Q5852.555385742187 -217.53887939453125 5793.075649414062 -139.16921997070312Q5733.595913085937 -60.799560546875 5627.786495361328 -17.589813232421875Q5521.977077636719 25.61993408203125 5383.758022460937 25.61993408203125Z" fill="#171717"/>
  </g>
</svg>
